<svg width="80" height="17" viewBox="0 0 80 17" fill="none" xmlns="http://www.w3.org/2000/svg">
<g clip-path="url(#clip0)">
<path d="M6.08364 9.04346C3.40983 8.47957 2.90683 7.98452 2.90683 7.25915C2.90683 6.45171 3.84399 5.93548 5.28944 5.93548C6.73489 5.93548 7.77265 6.62643 7.91031 7.70125L7.96591 8.11954H10.4729L10.4359 7.6033C10.2717 5.28688 8.18299 3.66406 5.36092 3.66406C2.39325 3.66406 0.399801 5.11215 0.399801 7.26179C0.399801 9.90913 2.72681 10.7378 4.75203 11.164C7.48409 11.7437 7.96591 12.2362 7.96591 13.0515C7.96591 13.9252 6.93609 14.534 5.46152 14.534C3.8387 14.534 2.70035 13.7531 2.54945 12.5485L2.50179 12.1197H-0.0131836L0.0238831 12.6359C0.201255 15.1376 2.3403 16.8187 5.34768 16.8187C8.35506 16.8187 10.4676 15.2303 10.4676 12.9642C10.4809 10.2904 7.98179 9.44585 6.08364 9.04346Z" fill="#003C96"/>
<path d="M16.0561 3.93945H11.4445V16.554H13.9303V12.9907H16.0482C19.2568 12.9907 21.3296 11.2143 21.3296 8.46376C21.3296 5.71317 19.2647 3.93945 16.0561 3.93945ZM13.9383 6.28235H15.9476C17.033 6.28235 18.8597 6.56561 18.8597 8.46376C18.8597 10.3619 17.0356 10.6452 15.9476 10.6452H13.9383V6.28235Z" fill="#003C96"/>
<path d="M28.1624 3.66211C24.3264 3.66211 21.5441 6.43123 21.5441 10.2407C21.5441 13.9894 24.3953 16.8168 28.1783 16.8168C32.0117 16.8168 34.7967 14.0476 34.7967 10.2407C34.7967 6.48947 31.9455 3.66211 28.1624 3.66211ZM28.1783 14.458C25.7745 14.458 24.0299 12.6842 24.0299 10.2407C24.0299 7.7549 25.7295 6.0209 28.1624 6.0209C30.5953 6.0209 32.3108 7.79725 32.3108 10.2407C32.3108 12.6842 30.5715 14.458 28.1783 14.458Z" fill="#003C96"/>
<path d="M59.2608 4.42188V5.77466H52.5101V9.43858H58.7525V10.794H52.5101V14.72H59.3932V16.0728H50.9825V4.42452L59.2608 4.42188Z" fill="#B1B2B2"/>
<path d="M68.897 4.42188V5.77466H62.1463V9.43858H68.3861V10.794H62.1463V14.72H69.0294V16.0728H60.6188V4.42452L68.897 4.42188Z" fill="#B1B2B2"/>
<path d="M73.8767 10.8729L71.7826 13.2078V16.0723H70.2551V4.42396H71.7826V11.1376L77.763 4.41602H79.6691L74.8668 9.76894L79.9894 16.0723H78.041L73.8767 10.8729Z" fill="#B1B2B2"/>
<path d="M39.7022 16.4027C39.5425 16.4022 39.3871 16.3505 39.2589 16.2552C39.1307 16.1599 39.0365 16.026 38.99 15.8732L35.7021 5.03235C35.6501 4.84498 35.6737 4.64473 35.7676 4.47447C35.8615 4.30422 36.0183 4.1775 36.2045 4.12144C36.3906 4.06538 36.5914 4.08444 36.7637 4.17453C36.936 4.26463 37.0661 4.4186 37.1263 4.60348L40.4143 15.4417C40.4713 15.6306 40.4512 15.8343 40.3585 16.0084C40.2657 16.1826 40.1078 16.3129 39.9193 16.3709C39.8488 16.3918 39.7757 16.4025 39.7022 16.4027Z" fill="#B1B2B2"/>
<path d="M45.6137 16.402C45.4538 16.402 45.2983 16.3505 45.17 16.2551C45.0417 16.1597 44.9476 16.0256 44.9015 15.8726L41.6029 5.03169C41.5461 4.84247 41.5667 4.6384 41.6603 4.46439C41.7539 4.29038 41.9127 4.16067 42.102 4.10379C42.2912 4.04692 42.4952 4.06755 42.6693 4.16114C42.8433 4.25472 42.973 4.4136 43.0299 4.60282L45.6057 13.0955L48.1816 4.60282C48.2403 4.41459 48.3706 4.25694 48.5444 4.16385C48.7182 4.07076 48.9216 4.04967 49.1108 4.10512C49.2991 4.16259 49.457 4.29239 49.5498 4.46608C49.6426 4.63977 49.6628 4.84317 49.6059 5.03169L46.3179 15.8726C46.2722 16.0243 46.1792 16.1575 46.0526 16.2527C45.9259 16.348 45.7721 16.4003 45.6137 16.402Z" fill="#B1B2B2"/>
<path d="M42.3256 2.42496C42.9953 2.42496 43.5381 1.88212 43.5381 1.21248C43.5381 0.542847 42.9953 0 42.3256 0C41.656 0 41.1132 0.542847 41.1132 1.21248C41.1132 1.88212 41.656 2.42496 42.3256 2.42496Z" fill="#003C96"/>
</g>
<defs>
<clipPath id="clip0">
<rect width="80" height="16.8159" fill="white"/>
</clipPath>
</defs>
</svg>
